<?xml version="1.0" encoding="UTF-8" standalone="no"?>
<!-- Created with Inkscape (http://www.inkscape.org/) -->

<svg
   width="210mm"
   height="297mm"
   viewBox="0 0 210 297"
   version="1.1"
   id="svg5"
   inkscape:version="1.2.1 (9c6d41e410, 2022-07-14)"
   sodipodi:docname="y-bearingmount-mountholes.svg"
   xmlns:inkscape="http://www.inkscape.org/namespaces/inkscape"
   xmlns:sodipodi="http://sodipodi.sourceforge.net/DTD/sodipodi-0.dtd"
   xmlns="http://www.w3.org/2000/svg"
   xmlns:svg="http://www.w3.org/2000/svg">
  <sodipodi:namedview
     id="namedview7"
     pagecolor="#ffffff"
     bordercolor="#666666"
     borderopacity="1.0"
     inkscape:showpageshadow="2"
     inkscape:pageopacity="0.0"
     inkscape:pagecheckerboard="0"
     inkscape:deskcolor="#d1d1d1"
     inkscape:document-units="mm"
     showgrid="false"
     inkscape:zoom="24.164684"
     inkscape:cx="28.367845"
     inkscape:cy="207.28597"
     inkscape:window-width="1920"
     inkscape:window-height="1029"
     inkscape:window-x="0"
     inkscape:window-y="27"
     inkscape:window-maximized="1"
     inkscape:current-layer="layer1" />
  <defs
     id="defs2" />
  <g
     inkscape:label="Layer 1"
     inkscape:groupmode="layer"
     id="layer1">
    <path
       id="rect370"
       style="fill:none;stroke:#000000;stroke-width:0.1;stroke-linecap:round;stroke-linejoin:round;stroke-dasharray:none"
       d="m 7.5,9.85 c 2.493,0 4.5,2.007 4.5,4.5 v 1 c 0,2.493 -2.007,4.5 -4.5,4.5 -2.493,0 -4.5,-2.007 -4.5,-4.5 v -1 c 0,-2.493 2.007,-4.5 4.5,-4.5 z" />
    <path
       id="rect944"
       style="fill:none;stroke:#000000;stroke-width:0.1;stroke-linecap:round;stroke-linejoin:round"
       d="M 0,0 H 15 V 69.699997 H 0 Z" />
    <path
       id="rect1010"
       style="fill:none;stroke:#000000;stroke-width:0.1;stroke-linecap:round;stroke-linejoin:round;stroke-dasharray:none"
       d="m 7.5,49.85 c 2.493,0 4.5,2.007 4.5,4.5 v 1 c 0,2.493 -2.007,4.5 -4.5,4.5 -2.493,0 -4.5,-2.007 -4.5,-4.5 v -1 c 0,-2.493 2.007,-4.5 4.5,-4.5 z" />
    <rect
       style="fill:none;stroke:#000000;stroke-width:0.348633"
       id="rect906"
       width="5.1999998"
       height="6"
       x="4.900001"
       y="11.85"
       ry="2.5999999" />
    <rect
       style="fill:none;stroke:#000000;stroke-width:0.348633"
       id="rect918"
       width="5.1999998"
       height="6"
       x="4.900001"
       y="51.849998"
       ry="2.5999999" />
  </g>
</svg>
